#!OML:ASF H:\Terrain\Patient Classification 1\Walking\liu\liu.ASF
:FULLY-SPECIFIED
:DEGREES
226
root 9.27231 16.8594 15.6225 8.57573 4.0618 -1.20852
lowerback -3.67071 -2.31168 -2.95295
upperback 0.427697 -3.06211 4.09307
thorax 2.88444 -1.6139 5.71588
lowerneck -21.1572 -3.23341 -10.2185
upperneck 18.7546 -3.58458 10.0919
head 9.81305 -1.24357 4.7467
rclavicle 1.65985e-014 -1.19271e-014
rhumerus -47.1246 -0.189942 -75.8278
rradius 26.2439
rwrist -13.1349
rhand -31.9138 -22.7451
rfingers 7.12502
rthumb -5.16546 -52.6622
lclavicle 1.65985e-014 -1.19271e-014
lhumerus -23.1591 -16.6863 93.3539
lradius 33.8941
lwrist 12.4176
lhand -18.6551 -28.4296
lfingers 7.12502
lthumb 7.63808 1.41244
rfemur -31.1431 0.891375 28.6358
rtibia 38.3217
rfoot -13.1054 5.7039
rtoes -11.9629
lfemur -15.423 7.00185 -16.3474
ltibia 69.1305
lfoot 0.311282 13.1169
ltoes -18.0256
227
root 9.2676 16.9101 15.8485 7.84774 3.5623 -2.02388
lowerback -2.90138 -2.01186 -2.28914
upperback 0.408701 -2.69673 4.28473
thorax 2.36469 -1.41158 5.58968
lowerneck -20.7466 -3.27451 -10.7889
upperneck 19.0323 -3.69152 10.8104
head 9.87538 -1.26518 5.09808
rclavicle -5.66536e-015 1.27222e-014
rhumerus -46.6844 1.35728 -77.1574
rradius 26.9214
rwrist -14.6442
rhand -31.8257 -23.9073
rfingers 7.12502
rthumb -5.08045 -53.8263
lclavicle -5.66536e-015 1.27222e-014
lhumerus -24.6126 -16.4543 93.8722
lradius 33.2674
lwrist 11.8177
lhand -18.7999 -28.6956
lfingers 7.12502
lthumb 7.49826 1.1515
rfemur -28.8538 1.47476 29.5244
rtibia 37.3184
rfoot -13.5773 5.69374
rtoes -8.96311
lfemur -16.4279 7.14568 -15.5249
ltibia 70.1996
lfoot -1.10177 13.8703
ltoes -14.9298
228
root 9.28524 16.9576 16.0543 7.57465 3.2432 -2.16665
lowerback -2.49295 -1.85046 -2.0917
upperback 0.348023 -2.48718 4.34586
thorax 2.04224 -1.2971 5.5665
lowerneck -20.1251 -3.17835 -11.1891
upperneck 18.9613 -3.56831 11.1377
head 9.7349 -1.21722 5.29844
rclavicle -2.3556e-014 2.3059e-014
rhumerus -45.7942 2.50796 -78.0479
rradius 27.0649
rwrist -15.403
rhand -32.9606 -24.3133
rfingers 7.12502
rthumb -6.17621 -54.2033
lclavicle -2.3556e-014 2.3059e-014
lhumerus -25.9339 -16.2527 94.5029
lradius 32.4855
lwrist 10.857
lhand -20.2163 -29.6927
lfingers 7.12502
lthumb 6.13104 0.198551
rfemur -27.2083 1.45721 29.6704
rtibia 36.3876
rfoot -13.7956 6.05671
rtoes -6.26374
lfemur -17.9392 6.96921 -15.6553
ltibia 70.9763
lfoot -2.7128 14.5597
ltoes -13.4595
229
root 9.28718 16.9857 16.2562 7.52412 2.73233 -2.57383
lowerback -2.68322 -1.61488 -1.87469
upperback 0.577951 -2.18965 4.52007
thorax 2.35191 -1.15657 5.63338
lowerneck -19.9412 -3.11391 -11.1219
upperneck 18.7207 -3.44608 10.9058
head 9.59529 -1.18489 5.20986
rclavicle -4.96962e-015 -3.18055e-015
rhumerus -44.319 3.10263 -78.6387
rradius 27.1477
rwrist -15.6375
rhand -32.8899 -25.1662
rfingers 7.12502
rthumb -6.10789 -55.0581
lclavicle -4.96962e-015 -3.18055e-015
lhumerus -26.5163 -16.132 94.9343
lradius 31.6368
lwrist 10.6546
lhand -20.5095 -29.8865
lfingers 7.12502
lthumb 5.84796 0.0127496
rfemur -25.8372 2.27508 30.1006
rtibia 35.4687
rfoot -14.1266 5.73757
rtoes -8.45751
lfemur -19.8329 7.27723 -15.3515
ltibia 71.703
lfoot -4.2841 14.69
ltoes -15.0549
230
root 9.29838 17.0185 16.4576 7.70613 2.23805 -2.50151
lowerback -2.99408 -1.39909 -1.9609
upperback 0.646675 -1.89993 4.4817
thorax 2.56672 -1.01749 5.65079
lowerneck -19.8773 -3.10467 -10.8181
upperneck 18.6429 -3.43655 10.5161
head 9.54216 -1.20241 5.01421
rclavicle -3.44891e-014 4.05521e-014
rhumerus -43.0192 3.58692 -79.2428
rradius 27.2526
rwrist -15.9734
rhand -34.1058 -23.167
rfingers 7.12502
rthumb -7.28166 -53.0217
lclavicle -3.44891e-014 4.05521e-014
lhumerus -27.3338 -15.9019 95.2109
lradius 31.1608
lwrist 10.6605
lhand -19.8228 -29.2554
lfingers 7.12502
lthumb 6.5109 0.62448
rfemur -24.7791 2.38314 30.0686
rtibia 34.8653
rfoot -14.6698 5.75977
rtoes -13.3129
lfemur -21.7231 7.29971 -15.8374
ltibia 72.0731
lfoot -5.56121 14.9721
ltoes -15.4878
231
root 9.30389 17.0514 16.6692 8.14464 1.55175 -2.1444
lowerback -3.46267 -1.09604 -2.29477
upperback 0.516603 -1.47262 4.29126
thorax 2.65058 -0.805807 5.65944
lowerneck -19.6821 -3.19108 -10.8076
upperneck 18.5686 -3.56665 10.4787
head 9.49573 -1.2708 4.97702
rclavicle -1.98785e-016 -6.36111e-015
rhumerus -42.1065 4.64073 -80.2215
rradius 27.4537
rwrist -16.2969
rhand -37.9371 -18.6949
rfingers 7.12502
rthumb -10.9786 -48.3878
lclavicle -1.98785e-016 -6.36111e-015
lhumerus -28.6219 -16.0528 95.5632
lradius 30.8727
lwrist 10.5356
lhand -19.5112 -28.7809
lfingers 7.12502
lthumb 6.81171 1.08952
rfemur -24.1568 2.5311 29.7318
rtibia 34.4135
rfoot -15.0052 5.85903
rtoes -14.9181
lfemur -23.7471 7.37423 -16.7101
ltibia 72.173
lfoot -6.74804 15.2977
ltoes -13.8681
232
root 9.32564 17.0871 16.8688 8.27709 1.16912 -1.82953
lowerback -3.43805 -0.880842 -2.32569
upperback 0.362713 -1.17433 4.0832
thorax 2.43846 -0.647536 5.47627
lowerneck -19.1885 -3.27967 -11.0511
upperneck 18.4184 -3.70112 10.6646
head 9.37861 -1.34272 5.06005
rclavicle 1.799e-014 -2.38542e-014
rhumerus -41.5039 6.13128 -81.3925
rradius 27.9045
rwrist -16.4174
rhand -36.9153 -20.5337
rfingers 7.12502
rthumb -9.99293 -50.2765
lclavicle 1.799e-014 -2.38542e-014
lhumerus -29.9699 -16.0783 95.9191
lradius 30.3946
lwrist 10.2236
lhand -19.129 -28.5814
lfingers 7.12502
lthumb 7.18063 1.27677
rfemur -23.2294 2.17333 29.3909
rtibia 34.01
rfoot -15.4472 6.23053
rtoes -14.6093
lfemur -25.4874 7.02866 -17.501
ltibia 72.0192
lfoot -7.73755 15.5783
ltoes -12.3675
233
root 9.33429 17.112 17.0601 8.29916 0.749163 -1.80011
lowerback -3.28349 -0.702641 -2.329
upperback 0.285326 -0.933858 4.04998
thorax 2.24371 -0.521338 5.45819
lowerneck -19.0917 -3.27899 -10.8922
upperneck 18.5705 -3.70963 10.4116
head 9.40631 -1.36562 4.94437
rclavicle -2.08724e-015 2.14687e-014
rhumerus -40.9804 7.61228 -82.4587
rradius 28.9451
rwrist -16.9444
rhand -29.719 -27.951
rfingers 7.12502
rthumb -3.04606 -57.909
lclavicle -2.08724e-015 2.14687e-014
lhumerus -31.1871 -15.7574 96.2378
lradius 29.737
lwrist 9.61734
lhand -19.0178 -28.8582
lfingers 7.12502
lthumb 7.28795 0.996279
rfemur -22.1768 2.40124 29.3833
rtibia 33.559
rfoot -15.8266 6.20927
rtoes -13.0972
lfemur -27.1913 6.86053 -17.773
ltibia 71.7046
lfoot -8.57969 15.5167
ltoes -10.7412
234
root 9.34445 17.1284 17.2566 8.33136 0.356219 -2.03704
lowerback -3.27964 -0.504151 -2.01991
upperback 0.435621 -0.684771 4.07404
thorax 2.36506 -0.39777 5.32029
lowerneck -19.7501 -3.33746 -10.7562
upperneck 18.8485 -3.74157 10.2361
head 9.62124 -1.37433 4.86395
rclavicle -6.16232e-015 2.38542e-015
rhumerus -39.9415 8.9392 -83.3339
rradius 29.9828
rwrist -17.5656
rhand -27.127 -30.3152
rfingers 7.12502
rthumb -0.542729 -60.2942
lclavicle -6.16232e-015 2.38542e-015
lhumerus -32.1068 -15.6521 96.5739
lradius 28.9929
lwrist 8.42422
lhand -20.0564 -29.3121
lfingers 7.12502
lthumb 6.28541 0.574667
rfemur -21.1524 2.70995 29.6453
rtibia 33.1778
rfoot -15.9375 6.34982
rtoes -9.96665
lfemur -28.8333 6.75341 -17.7756
ltibia 71.3415
lfoot -9.5698 15.3928
ltoes -10.0874
235
root 9.3597 17.1571 17.4813 8.21092 -0.0940214 -1.94058
lowerback -3.26764 -0.273795 -1.92925
upperback 0.59279 -0.380966 3.94492
thorax 2.48594 -0.248244 5.14974
lowerneck -20.3191 -3.44485 -10.906
upperneck 19.1061 -3.85404 10.4496
head 9.8377 -1.40053 4.96149
rclavicle -1.98785e-015 2.14687e-014
rhumerus -38.7958 10.0273 -84.0653
rradius 30.5152
rwrist -17.9093
rhand -30.6868 -27.8765
rfingers 7.12502
rthumb -3.98073 -57.8191
lclavicle -1.98785e-015 2.14687e-014
lhumerus -32.9254 -15.2237 96.5222
lradius 28.6338
lwrist 8.61754
lhand -18.0399 -27.8461
lfingers 7.12502
lthumb 8.23184 1.97357
rfemur -19.9545 2.67433 29.5228
rtibia 32.964
rfoot -16.3314 6.52733
rtoes -9.2403
lfemur -29.9739 6.47905 -18.211
ltibia 70.6398
lfoot -10.7424 15.3833
ltoes -9.62011
